<?xml version="1.0" standalone="no"?><!DOCTYPE svg PUBLIC "-//W3C//DTD SVG 1.1//EN" "http://www.w3.org/Graphics/SVG/1.1/DTD/svg11.dtd"><svg class="icon" width="200px" height="200.00px" viewBox="0 0 1024 1024" version="1.1" xmlns="http://www.w3.org/2000/svg"><path fill="#bfbfbf" d="M512 25.6C244.224 25.6 26.112 243.712 26.112 511.488c0 22.528 18.432 41.984 41.984 41.984h116.736c22.528 0 41.984-18.432 41.984-41.984 0-22.528-18.432-41.984-41.984-41.984H111.616c20.48-201.728 192-360.448 400.384-360.448 221.184 0 402.944 180.224 402.944 402.944s-180.224 402.944-402.944 402.944c-142.336 0-271.872-73.216-345.6-195.584-11.776-19.456-37.888-26.112-57.344-13.824s-26.112 37.888-13.824 57.344c87.552 144.896 247.296 235.52 416.768 235.52 267.776 0 485.888-218.112 485.888-485.888S780.8 25.6 512 25.6zM671.744 454.144L480.768 335.36c-10.752-6.656-22.528-9.728-35.84-9.728-36.864 0-67.072 30.208-67.072 67.072v237.568c0 12.8 3.072 25.088 9.728 35.84 19.456 31.232 60.416 40.96 92.672 21.504l190.976-118.784c8.704-5.632 16.384-12.8 21.504-21.504 19.968-31.744 10.24-73.728-20.992-93.184z m-217.088 151.04V416.256l157.696 95.232-157.696 93.696z" /></svg>