<?xml version="1.0" standalone="no"?><!DOCTYPE svg PUBLIC "-//W3C//DTD SVG 1.1//EN" "http://www.w3.org/Graphics/SVG/1.1/DTD/svg11.dtd"><svg class="icon" width="200px" height="200.00px" viewBox="0 0 1024 1024" version="1.1" xmlns="http://www.w3.org/2000/svg"><path fill="#bfbfbf" d="M988.48 947.184l-83.16-308.56c-9.456-15-18.848-19.936-28.24-19.936H811.2c-18.784 0-28.24 14.936-28.24 29.872 0 19.936 14.096 29.816 28.24 29.816h47.096l54.848 248.872H108.472l54.92-248.872h51.752c18.816 0 28.24-14.872 28.24-29.816 0-19.936-14.12-29.872-28.24-29.872h-70.576c-9.424 0-18.848 4.936-28.24 19.936l-83.16 308.56c0 9.936-4.696 19.936 4.728 29.872 4.696 9.944 18.816 14.944 28.248 14.944h898.792c18.848 0 23.544-10 23.544-14.936 4.688-9.936 4.688-19.936 0-29.88z m-514.136-169.68c4.728 4.688 9.424 9.376 18.816 9.376 9.424 0 14.12-4.688 18.848-9.376 4.696-4.688 277.656-286 277.656-445.44C789.664 167.968 657.912 32 493.168 32 328.48 32 196.728 163.28 196.728 332.064c0 159.44 272.928 445.44 277.616 445.44z m18.824-684.568c131.816 0 240.016 107.84 240.016 239.128 0 89.064-127.048 262.56-240.016 384.504-108.208-126.632-239.992-295.44-239.992-384.504 0-131.28 108.24-239.128 239.992-239.128zM657.912 318c0-89.064-70.632-159.408-160.024-159.408-89.416 0-164.712 70.344-164.712 159.408 0 89.128 70.6 159.44 159.992 159.44 89.416 0 164.744-70.312 164.744-159.44z m-268.256 0c0-56.248 47.056-103.16 103.504-103.16 56.488 0 103.504 46.904 103.504 103.16s-47.024 103.128-103.504 103.128c-56.448 0-103.504-46.88-103.504-103.128z" /></svg>