<?xml version="1.0" standalone="no"?><!DOCTYPE svg PUBLIC "-//W3C//DTD SVG 1.1//EN" "http://www.w3.org/Graphics/SVG/1.1/DTD/svg11.dtd"><svg class="icon" width="200px" height="200.00px" viewBox="0 0 1024 1024" version="1.1" xmlns="http://www.w3.org/2000/svg"><path fill="#bfbfbf" d="M917 216.9c-4.07-2.37-8.7-3.62-13.41-3.62h-34.73c-5.26 0-10.4 1.56-14.78 4.47l-101.23 67.48c-17.71 11.8-41.43-0.89-41.43-22.17 0-51.06-60.04-99.57-109.54-99.57H153.82c-49.49 0-89.61 41.39-89.61 92.46v512.09c0 51.07 40.12 92.46 89.61 92.46H601.9c49.49 0 109.54-48.51 109.54-99.57 0-21.28 23.72-33.98 41.43-22.17l101.23 67.48c4.38 2.92 9.52 4.47 14.78 4.47h34.73c4.71 0 9.34-1.25 13.41-3.62 13.45-7.83 43.35-26.64 43.35-39.05V255.95c-0.02-12.41-29.92-31.22-43.37-39.05zM611.23 733.64c0 14.72-11.93 26.65-26.65 26.65H189.81c-14.72 0-26.65-11.93-26.65-26.65V290.36c0-14.72 11.93-26.65 26.65-26.65h394.78c14.72 0 26.65 11.93 26.65 26.65v443.28zM860.8 624.39c0 18.19-17.82 31.03-35.07 25.28l-96.07-32.02a26.651 26.651 0 0 1-18.22-25.28V431.63c0-11.47 7.34-21.65 18.22-25.28l96.07-32.03c17.25-5.75 35.07 7.09 35.07 25.28v224.79zM336.28 362.64H290c-14.72 0-26.65 11.93-26.65 26.65v46.29c0 14.72 11.93 26.65 26.65 26.65h46.28c14.72 0 26.65-11.93 26.65-26.65v-46.29c0-14.72-11.93-26.65-26.65-26.65z"  /></svg>