<?xml version="1.0" encoding="UTF-8"?>
<svg width="32px" height="32px" viewBox="0 0 32 32" version="1.1" xmlns="http://www.w3.org/2000/svg" xmlns:xlink="http://www.w3.org/1999/xlink">
    <!-- Generator: Sketch 51 (57462) - http://www.bohemiancoding.com/sketch -->
    <title>icon/32/ico_device_offline</title>
    <desc>Created with Sketch.</desc>
    <defs>
        <linearGradient x1="50%" y1="-2.48949813e-15%" x2="50%" y2="100%" id="linearGradient-1">
            <stop stop-color="#868181" offset="0%"></stop>
            <stop stop-color="#5C5C5C" offset="100%"></stop>
        </linearGradient>
        <rect id="path-2" x="0" y="0" width="28" height="9"></rect>
        <linearGradient x1="50%" y1="-2.48949813e-15%" x2="50%" y2="100%" id="linearGradient-3">
            <stop stop-color="#C9C9C9" offset="0%"></stop>
            <stop stop-color="#C6C6C6" offset="100%"></stop>
        </linearGradient>
    </defs>
    <g id="icon/32/ico_device_offline" stroke="none" stroke-width="1" fill="none" fill-rule="evenodd">
        <g id="ico_device_offline">
            <rect id="Rectangle-31-Copy" fill-opacity="0" fill="#FFFFFF" x="0" y="0" width="32" height="32"></rect>
            <g id="ico_device" transform="translate(2.000000, 5.000000)">
                <g id="Rectangle-42">
                    <use fill="#FFFFFF" xlink:href="#path-2"></use>
                    <use fill-opacity="0.83" fill="url(#linearGradient-1)" xlink:href="#path-2"></use>
                </g>
                <path d="M2,3 L4,3 L4,5 L2,5 L2,3 Z M5,3 L7,3 L7,5 L5,5 L5,3 Z" id="Combined-Shape" fill="#323232"></path>
                <path d="M9,3 L22,3 L22,4 L9,4 L9,3 Z M9,5 L22,5 L22,6 L9,6 L9,5 Z" id="Combined-Shape" fill="#2B2B2B"></path>
                <circle id="Oval-6" fill="#2B2B2B" cx="25.5" cy="4.5" r="1.5"></circle>
                <rect id="Rectangle-42-Copy" fill="url(#linearGradient-3)" x="0" y="11" width="28" height="9"></rect>
                <rect id="Rectangle-44-Copy-2" fill="#292929" x="9" y="14" width="13" height="1"></rect>
                <rect id="Rectangle-44-Copy-3" fill="#292929" x="9" y="16" width="13" height="1"></rect>
                <circle id="Oval-6" fill="#292929" cx="25.5" cy="15.5" r="1.5"></circle>
                <path d="M2,14 L4,14 L4,16 L2,16 L2,14 Z M5,14 L7,14 L7,16 L5,16 L5,14 Z" id="Combined-Shape" fill="#454545"></path>
                <rect id="Rectangle-45" fill="#E7E7E7" x="2" y="21" width="4" height="1"></rect>
                <rect id="Rectangle-45-Copy" fill="#E7E7E7" x="22" y="21" width="4" height="1"></rect>
            </g>
        </g>
    </g>
</svg>