<?xml version="1.0" encoding="UTF-8"?>
<svg width="32px" height="32px" viewBox="0 0 32 32" version="1.1" xmlns="http://www.w3.org/2000/svg" xmlns:xlink="http://www.w3.org/1999/xlink">
    <!-- Generator: Sketch 51 (57462) - http://www.bohemiancoding.com/sketch -->
    <title>icon/32/ico_device_online</title>
    <desc>Created with Sketch.</desc>
    <defs>
        <linearGradient x1="50%" y1="100%" x2="50%" y2="-2.48949813e-15%" id="linearGradient-1">
            <stop stop-color="#5C8DFF" offset="0%"></stop>
            <stop stop-color="#00B4FF" offset="100%"></stop>
        </linearGradient>
        <linearGradient x1="50%" y1="0%" x2="50%" y2="100%" id="linearGradient-2">
            <stop stop-color="#58FFBA" offset="0%"></stop>
            <stop stop-color="#00DE95" offset="100%"></stop>
        </linearGradient>
    </defs>
    <g id="icon/32/ico_device_online" stroke="none" stroke-width="1" fill="none" fill-rule="evenodd">
        <g id="ico_device_online">
            <rect id="Rectangle-31-Copy" fill-opacity="0" fill="#FFFFFF" x="0" y="0" width="32" height="32"></rect>
            <g id="ico_device" transform="translate(2.000000, 5.000000)">
                <rect id="Rectangle-42" fill="url(#linearGradient-1)" x="0" y="0" width="28" height="9"></rect>
                <path d="M2,3 L4,3 L4,5 L2,5 L2,3 Z M5,3 L7,3 L7,5 L5,5 L5,3 Z" id="Combined-Shape" fill="#0E4FC0"></path>
                <rect id="Rectangle-44" fill="#004097" x="9" y="3" width="13" height="1"></rect>
                <circle id="Oval-6" fill="#003173" cx="25.5" cy="4.5" r="1.5"></circle>
                <rect id="Rectangle-44-Copy" fill="#004097" x="9" y="5" width="13" height="1"></rect>
                <rect id="Rectangle-42-Copy" fill="url(#linearGradient-2)" x="0" y="11" width="28" height="9"></rect>
                <rect id="Rectangle-44-Copy-2" fill="#07694E" x="9" y="14" width="13" height="1"></rect>
                <rect id="Rectangle-44-Copy-3" fill="#07694E" x="9" y="16" width="13" height="1"></rect>
                <circle id="Oval-6" fill="#036A00" cx="25.5" cy="15.5" r="1.5"></circle>
                <path d="M2,14 L4,14 L4,16 L2,16 L2,14 Z M5,14 L7,14 L7,16 L5,16 L5,14 Z" id="Combined-Shape" fill="#00914F"></path>
                <rect id="Rectangle-45" fill="#E7E7E7" x="2" y="21" width="4" height="1"></rect>
                <rect id="Rectangle-45-Copy" fill="#E7E7E7" x="22" y="21" width="4" height="1"></rect>
            </g>
        </g>
    </g>
</svg>